<svg width="336" height="72" viewBox="0 0 336 72" xmlns="http://www.w3.org/2000/svg"><title>RoboHome</title><g fill="none" fill-rule="evenodd"><path d="M0 0h72v72H0z"/><path d="M21.803 42H15v18h42V42h-6.803A5.998 5.998 0 0 1 45 45H27a5.998 5.998 0 0 1-5.197-3zm28.394-6H66L36 9 6 36h15.803A5.998 5.998 0 0 1 27 33h18c2.22 0 4.16 1.207 5.197 3z" fill="#000"/><circle fill="#000" cx="27" cy="39" r="3"/><circle fill="#000" cx="36" cy="39" r="3"/><circle fill="#000" cx="45" cy="39" r="3"/><path d="M91.872 54l-7.59-12.65H81.43V54h-6.486V21.524h12.374c3.772 0 6.647.92 8.625 2.76 1.978 1.84 2.967 4.263 2.967 7.268 0 2.453-.682 4.508-2.047 6.164-1.365 1.656-3.335 2.76-5.911 3.312L99.048 54h-7.176zM81.43 36.888h5.336c3.71 0 5.566-1.64 5.566-4.922 0-1.564-.452-2.783-1.357-3.657-.905-.874-2.308-1.311-4.209-1.311H81.43v9.89zm33.626-8.694c2.484 0 4.715.521 6.693 1.564 1.978 1.043 3.534 2.553 4.669 4.531 1.135 1.978 1.702 4.301 1.702 6.969s-.567 4.983-1.702 6.946-2.691 3.473-4.669 4.531c-1.978 1.058-4.209 1.587-6.693 1.587s-4.715-.529-6.693-1.587c-1.978-1.058-3.534-2.568-4.669-4.531-1.135-1.963-1.702-4.278-1.702-6.946s.567-4.991 1.702-6.969c1.135-1.978 2.691-3.488 4.669-4.531 1.978-1.043 4.209-1.564 6.693-1.564zm0 5.612c-1.81 0-3.343.636-4.6 1.909-1.257 1.273-1.886 3.12-1.886 5.543s.629 4.27 1.886 5.543c1.257 1.273 2.79 1.909 4.6 1.909 1.81 0 3.343-.636 4.6-1.909 1.257-1.273 1.886-3.12 1.886-5.543s-.629-4.27-1.886-5.543c-1.257-1.273-2.79-1.909-4.6-1.909zm32.89-5.612c2.147 0 4.079.521 5.796 1.564 1.717 1.043 3.059 2.553 4.025 4.531.966 1.978 1.449 4.301 1.449 6.969s-.483 4.991-1.449 6.969c-.966 1.978-2.308 3.488-4.025 4.531-1.717 1.043-3.65 1.564-5.796 1.564-2.147 0-3.979-.514-5.497-1.541a8.43 8.43 0 0 1-3.243-4.117V54h-6.486V19.96h6.486v13.846a8.307 8.307 0 0 1 3.243-4.094c1.518-1.012 3.35-1.518 5.497-1.518zm-2.024 5.658c-1.963 0-3.58.667-4.853 2.001-1.273 1.334-1.909 3.136-1.909 5.405 0 2.239.636 4.025 1.909 5.359 1.273 1.334 2.89 2.001 4.853 2.001 2.024 0 3.65-.652 4.876-1.955 1.227-1.303 1.84-3.105 1.84-5.405 0-2.3-.613-4.11-1.84-5.428-1.227-1.319-2.852-1.978-4.876-1.978zm29.67-5.658c2.484 0 4.715.521 6.693 1.564 1.978 1.043 3.534 2.553 4.669 4.531 1.135 1.978 1.702 4.301 1.702 6.969s-.567 4.983-1.702 6.946-2.691 3.473-4.669 4.531c-1.978 1.058-4.209 1.587-6.693 1.587s-4.715-.529-6.693-1.587c-1.978-1.058-3.534-2.568-4.669-4.531-1.135-1.963-1.702-4.278-1.702-6.946s.567-4.991 1.702-6.969c1.135-1.978 2.691-3.488 4.669-4.531 1.978-1.043 4.209-1.564 6.693-1.564zm0 5.612c-1.81 0-3.343.636-4.6 1.909-1.257 1.273-1.886 3.12-1.886 5.543s.629 4.27 1.886 5.543c1.257 1.273 2.79 1.909 4.6 1.909 1.81 0 3.343-.636 4.6-1.909 1.257-1.273 1.886-3.12 1.886-5.543s-.629-4.27-1.886-5.543c-1.257-1.273-2.79-1.909-4.6-1.909zm44.574-12.282V54h-6.532V39.878h-13.892V54h-6.486V21.524h6.486V34.68h13.892V21.524h6.532zm17.664 6.67c2.484 0 4.715.521 6.693 1.564 1.978 1.043 3.534 2.553 4.669 4.531 1.135 1.978 1.702 4.301 1.702 6.969s-.567 4.983-1.702 6.946-2.691 3.473-4.669 4.531c-1.978 1.058-4.209 1.587-6.693 1.587s-4.715-.529-6.693-1.587c-1.978-1.058-3.534-2.568-4.669-4.531-1.135-1.963-1.702-4.278-1.702-6.946s.567-4.991 1.702-6.969c1.135-1.978 2.691-3.488 4.669-4.531 1.978-1.043 4.209-1.564 6.693-1.564zm0 5.612c-1.81 0-3.343.636-4.6 1.909-1.257 1.273-1.886 3.12-1.886 5.543s.629 4.27 1.886 5.543c1.257 1.273 2.79 1.909 4.6 1.909 1.81 0 3.343-.636 4.6-1.909 1.257-1.273 1.886-3.12 1.886-5.543s-.629-4.27-1.886-5.543c-1.257-1.273-2.79-1.909-4.6-1.909zm50.094-5.658c3.097 0 5.543.958 7.337 2.875 1.794 1.917 2.691 4.638 2.691 8.165V54h-6.44V39.924c0-1.963-.498-3.473-1.495-4.531-.997-1.058-2.369-1.587-4.117-1.587-1.81 0-3.25.567-4.324 1.702-1.073 1.135-1.61 2.79-1.61 4.968V54h-6.44V39.924c0-1.963-.498-3.473-1.495-4.531-.997-1.058-2.369-1.587-4.117-1.587-1.81 0-3.25.567-4.324 1.702-1.073 1.135-1.61 2.79-1.61 4.968V54h-6.486V28.516h6.486v4.83c.675-1.656 1.74-2.936 3.197-3.841 1.457-.905 3.151-1.357 5.083-1.357 2.055 0 3.841.49 5.359 1.472 1.518.981 2.66 2.392 3.427 4.232.797-1.748 1.986-3.136 3.565-4.163 1.58-1.027 3.35-1.541 5.313-1.541zm39.698 12.144c0 .644-.077 1.38-.23 2.208h-18.676c.092 2.27.705 3.94 1.84 5.014 1.135 1.073 2.545 1.61 4.232 1.61 1.503 0 2.752-.368 3.749-1.104.997-.736 1.633-1.733 1.909-2.99h6.854a10.965 10.965 0 0 1-2.162 4.784c-1.104 1.41-2.522 2.515-4.255 3.312-1.733.797-3.657 1.196-5.773 1.196-2.484 0-4.692-.529-6.624-1.587-1.932-1.058-3.435-2.568-4.508-4.531-1.073-1.963-1.61-4.278-1.61-6.946s.537-4.991 1.61-6.969c1.073-1.978 2.576-3.488 4.508-4.531 1.932-1.043 4.14-1.564 6.624-1.564 2.515 0 4.715.521 6.601 1.564 1.886 1.043 3.343 2.476 4.37 4.301 1.027 1.825 1.541 3.902 1.541 6.233zm-6.532-.644c.092-2.085-.452-3.665-1.633-4.738-1.18-1.073-2.63-1.61-4.347-1.61-1.748 0-3.22.537-4.416 1.61-1.196 1.073-1.855 2.653-1.978 4.738h12.374z" fill="#000"/></g></svg>